<svg width="36" height="36" viewBox="0 0 36 36" fill="none" xmlns="http://www.w3.org/2000/svg">
<path d="M25.2749 4.35C25.6499 4.725 25.8374 5.169 25.8374 5.682C25.8374 6.194 25.6499 6.6375 25.2749 7.0125L14.2874 18L25.3124 29.025C25.6624 29.375 25.8374 29.8125 25.8374 30.3375C25.8374 30.8625 25.6499 31.3125 25.2749 31.6875C24.8999 32.0625 24.4559 32.25 23.9429 32.25C23.4309 32.25 22.9874 32.0625 22.6124 31.6875L10.0124 19.05C9.8624 18.9 9.7559 18.7375 9.6929 18.5625C9.6309 18.3875 9.5999 18.2 9.5999 18C9.5999 17.8 9.6309 17.6125 9.6929 17.4375C9.7559 17.2625 9.8624 17.1 10.0124 16.95L22.6499 4.3125C22.9999 3.9625 23.4309 3.7875 23.9429 3.7875C24.4559 3.7875 24.8999 3.975 25.2749 4.35Z" fill="#6C6C6C"/>
</svg>
