<svg width="36" height="36" viewBox="0 0 36 36" fill="none" xmlns="http://www.w3.org/2000/svg">
<path d="M23.1404 22.722V15.222H15.6404V14.754C15.6404 13.9785 16.2704 13.347 17.0474 13.347H18.4529V10.5345H17.0474C15.9287 10.5357 14.8561 10.9806 14.0651 11.7717C13.274 12.5627 12.8291 13.6353 12.8279 14.754V15.222H10.9529V18.0345H12.8279V22.722H10.9529V25.5345H17.5154V22.722H15.6404V18.0345H20.3549V22.722H18.4529V25.5345H25.0154V22.722H23.1404Z" fill="#343434"/>
<path d="M21.6031 13.458C22.4323 13.458 23.1046 12.7858 23.1046 11.9565C23.1046 11.1273 22.4323 10.455 21.6031 10.455C20.7738 10.455 20.1016 11.1273 20.1016 11.9565C20.1016 12.7858 20.7738 13.458 21.6031 13.458Z" fill="#343434"/>
<path d="M9 6C8.20435 6 7.44129 6.31607 6.87868 6.87868C6.31607 7.44129 6 8.20435 6 9V27C6 27.7956 6.31607 28.5587 6.87868 29.1213C7.44129 29.6839 8.20435 30 9 30H27C27.7956 30 28.5587 29.6839 29.1213 29.1213C29.6839 28.5587 30 27.7956 30 27V9C30 8.20435 29.6839 7.44129 29.1213 6.87868C28.5587 6.31607 27.7956 6 27 6H9ZM9 3H27C28.5913 3 30.1174 3.63214 31.2426 4.75736C32.3679 5.88258 33 7.4087 33 9V27C33 28.5913 32.3679 30.1174 31.2426 31.2426C30.1174 32.3679 28.5913 33 27 33H9C7.4087 33 5.88258 32.3679 4.75736 31.2426C3.63214 30.1174 3 28.5913 3 27V9C3 7.4087 3.63214 5.88258 4.75736 4.75736C5.88258 3.63214 7.4087 3 9 3V3Z" fill="#343434"/>
</svg>
