<svg width="126" height="24" viewBox="0 0 126 24" fill="none" xmlns="http://www.w3.org/2000/svg">
<g clip-path="url(#clip0_55_2)">
<path d="M14.098 9.54688H10.9872C10.9304 9.14441 10.8144 8.78693 10.6392 8.47443C10.464 8.1572 10.2391 7.88731 9.96449 7.66477C9.68987 7.44223 9.37263 7.27178 9.01278 7.15341C8.65767 7.03504 8.27178 6.97585 7.85511 6.97585C7.10227 6.97585 6.4465 7.16288 5.88778 7.53693C5.32907 7.90625 4.89583 8.44602 4.58807 9.15625C4.2803 9.86174 4.12642 10.7187 4.12642 11.7273C4.12642 12.7642 4.2803 13.6354 4.58807 14.3409C4.90057 15.0464 5.33617 15.5791 5.89489 15.9389C6.4536 16.2988 7.09991 16.4787 7.83381 16.4787C8.24574 16.4787 8.62689 16.4242 8.97727 16.3153C9.33239 16.2064 9.64725 16.0478 9.92188 15.8395C10.1965 15.6264 10.4238 15.3684 10.6037 15.0653C10.7884 14.7623 10.9162 14.4167 10.9872 14.0284L14.098 14.0426C14.0175 14.7102 13.8163 15.3542 13.4943 15.9744C13.1771 16.59 12.7486 17.1416 12.2088 17.6293C11.6738 18.1122 11.0346 18.4957 10.2912 18.7798C9.55256 19.0592 8.71686 19.1989 7.78409 19.1989C6.48674 19.1989 5.3267 18.9053 4.30398 18.3182C3.28598 17.7311 2.48106 16.8812 1.8892 15.7685C1.30208 14.6558 1.00852 13.3087 1.00852 11.7273C1.00852 10.1411 1.30682 8.79167 1.90341 7.67898C2.5 6.56629 3.30966 5.71875 4.33239 5.13636C5.35511 4.54924 6.50568 4.25568 7.78409 4.25568C8.62689 4.25568 9.40814 4.37405 10.1278 4.6108C10.8523 4.84754 11.4938 5.19318 12.0526 5.64773C12.6113 6.09754 13.0658 6.64915 13.4162 7.30256C13.7713 7.95597 13.9986 8.70407 14.098 9.54688ZM19.3572 19.206C18.6612 19.206 18.041 19.0852 17.4964 18.8438C16.9519 18.5975 16.5211 18.2353 16.2038 17.7571C15.8913 17.2741 15.7351 16.6728 15.7351 15.9531C15.7351 15.3471 15.8464 14.8381 16.0689 14.4261C16.2914 14.0142 16.5945 13.6828 16.978 13.4318C17.3615 13.1809 17.7971 12.9915 18.2848 12.8636C18.7772 12.7358 19.2933 12.6458 19.8331 12.5938C20.4676 12.5275 20.9789 12.4659 21.3672 12.4091C21.7554 12.3475 22.0372 12.2576 22.2124 12.1392C22.3875 12.0208 22.4751 11.8456 22.4751 11.6136V11.571C22.4751 11.1212 22.3331 10.7732 22.049 10.527C21.7696 10.2808 21.3719 10.1577 20.8558 10.1577C20.3113 10.1577 19.8781 10.2784 19.5561 10.5199C19.2341 10.7566 19.0211 11.0549 18.9169 11.4148L16.1186 11.1875C16.2607 10.5246 16.54 9.9517 16.9567 9.46875C17.3733 8.98106 17.9107 8.60701 18.5689 8.34659C19.2318 8.08144 19.9988 7.94886 20.87 7.94886C21.4761 7.94886 22.0561 8.01989 22.6101 8.16193C23.1688 8.30398 23.6636 8.52415 24.0945 8.82244C24.5301 9.12074 24.8733 9.50426 25.1243 9.97301C25.3752 10.437 25.5007 10.9934 25.5007 11.642V19H22.6314V17.4872H22.5462C22.371 17.8281 22.1366 18.1288 21.843 18.3892C21.5495 18.6449 21.1967 18.8461 20.7848 18.9929C20.3729 19.1349 19.897 19.206 19.3572 19.206ZM20.2237 17.1179C20.6688 17.1179 21.0618 17.0303 21.4027 16.8551C21.7436 16.6752 22.0111 16.4337 22.2053 16.1307C22.3994 15.8277 22.4964 15.4844 22.4964 15.1009V13.9432C22.4018 14.0047 22.2715 14.0616 22.1058 14.1136C21.9448 14.161 21.7625 14.206 21.5589 14.2486C21.3554 14.2865 21.1518 14.322 20.9482 14.3551C20.7446 14.3835 20.5599 14.4096 20.3942 14.4332C20.0391 14.4853 19.7289 14.5682 19.4638 14.6818C19.1986 14.7955 18.9927 14.9493 18.8459 15.1435C18.6991 15.3329 18.6257 15.5696 18.6257 15.8537C18.6257 16.2656 18.7749 16.5805 19.0732 16.7983C19.3762 17.0114 19.7597 17.1179 20.2237 17.1179ZM27.848 19V8.09091H30.7812V9.99432H30.8949C31.0938 9.31723 31.4276 8.80587 31.8963 8.46023C32.3651 8.10985 32.9048 7.93466 33.5156 7.93466C33.6671 7.93466 33.8305 7.94413 34.0057 7.96307C34.1809 7.98201 34.3348 8.00805 34.4673 8.04119V10.7259C34.3253 10.6832 34.1288 10.6454 33.8778 10.6122C33.6269 10.5791 33.3973 10.5625 33.1889 10.5625C32.7438 10.5625 32.3461 10.6596 31.9957 10.8537C31.6501 11.0431 31.3755 11.3082 31.1719 11.6491C30.973 11.9901 30.8736 12.383 30.8736 12.8281V19H27.848ZM39.0572 4.45455V19H36.0316V4.45455H39.0572ZM46.4098 19.2131C45.3066 19.2131 44.3525 18.9787 43.5476 18.5099C42.7474 18.0365 42.1295 17.3783 41.6939 16.5355C41.2583 15.688 41.0405 14.7055 41.0405 13.5881C41.0405 12.4612 41.2583 11.4763 41.6939 10.6335C42.1295 9.78598 42.7474 9.12784 43.5476 8.65909C44.3525 8.18561 45.3066 7.94886 46.4098 7.94886C47.513 7.94886 48.4647 8.18561 49.2649 8.65909C50.0698 9.12784 50.6901 9.78598 51.1257 10.6335C51.5613 11.4763 51.7791 12.4612 51.7791 13.5881C51.7791 14.7055 51.5613 15.688 51.1257 16.5355C50.6901 17.3783 50.0698 18.0365 49.2649 18.5099C48.4647 18.9787 47.513 19.2131 46.4098 19.2131ZM46.424 16.8693C46.9259 16.8693 47.3449 16.7273 47.6811 16.4432C48.0173 16.1544 48.2706 15.7614 48.4411 15.2642C48.6162 14.767 48.7038 14.2012 48.7038 13.5668C48.7038 12.9323 48.6162 12.3665 48.4411 11.8693C48.2706 11.3722 48.0173 10.9792 47.6811 10.6903C47.3449 10.4015 46.9259 10.2571 46.424 10.2571C45.9174 10.2571 45.4912 10.4015 45.1456 10.6903C44.8047 10.9792 44.5466 11.3722 44.3714 11.8693C44.201 12.3665 44.1158 12.9323 44.1158 13.5668C44.1158 14.2012 44.201 14.767 44.3714 15.2642C44.5466 15.7614 44.8047 16.1544 45.1456 16.4432C45.4912 16.7273 45.9174 16.8693 46.424 16.8693ZM54.4709 19V4.45455H59.1655C60.1977 4.45455 61.0594 4.64157 61.7507 5.01562C62.4467 5.38494 62.9699 5.89867 63.3203 6.55682C63.6754 7.21023 63.853 7.9607 63.853 8.80824C63.853 9.65578 63.6754 10.4039 63.3203 11.0526C62.9699 11.7012 62.4491 12.2079 61.7578 12.5724C61.0665 12.937 60.2095 13.1193 59.1868 13.1193H55.1882V11.9048H59.1513C59.9089 11.9048 60.5386 11.7794 61.0405 11.5284C61.5471 11.2775 61.9235 10.92 62.1697 10.456C62.4207 9.99195 62.5462 9.44271 62.5462 8.80824C62.5462 8.17377 62.4207 7.61979 62.1697 7.14631C61.9188 6.66809 61.54 6.29877 61.0334 6.03835C60.5315 5.77793 59.897 5.64773 59.13 5.64773H55.799V19H54.4709ZM60.8842 12.4375L64.4638 19H62.9297L59.3857 12.4375H60.8842ZM67.706 23.0909C67.455 23.0909 67.2206 23.0672 67.0028 23.0199C66.785 22.9725 66.6122 22.9205 66.4844 22.8636L66.8253 21.7486C67.2562 21.8812 67.6397 21.9285 67.9759 21.8906C68.312 21.8575 68.6103 21.706 68.8707 21.4361C69.1312 21.1709 69.3632 20.7637 69.5668 20.2145L69.9645 19.1065L65.9517 8.09091H67.3224L70.5611 17.331H70.6605L73.8991 8.09091H75.2699L70.6534 20.7259C70.4593 21.2514 70.2202 21.6894 69.9361 22.0398C69.652 22.3949 69.3229 22.6577 68.9489 22.8281C68.5795 23.0033 68.1652 23.0909 67.706 23.0909ZM81.5927 19.2273C80.6504 19.2273 79.8171 18.9882 79.0927 18.5099C78.373 18.0317 77.8095 17.3712 77.4023 16.5284C76.9951 15.6809 76.7915 14.7031 76.7915 13.5952C76.7915 12.4777 76.9951 11.4953 77.4023 10.6477C77.8095 9.79545 78.373 9.13258 79.0927 8.65909C79.8171 8.18087 80.6504 7.94176 81.5927 7.94176C82.5349 7.94176 83.3659 8.18087 84.0856 8.65909C84.8053 9.13731 85.3687 9.80019 85.7759 10.6477C86.1879 11.4953 86.3938 12.4777 86.3938 13.5952C86.3938 14.7031 86.1902 15.6809 85.783 16.5284C85.3758 17.3712 84.81 18.0317 84.0856 18.5099C83.3659 18.9882 82.5349 19.2273 81.5927 19.2273ZM81.5927 18.0696C82.3503 18.0696 82.9918 17.866 83.5174 17.4588C84.043 17.0516 84.4407 16.5095 84.7106 15.8324C84.9852 15.1553 85.1225 14.4096 85.1225 13.5952C85.1225 12.7808 84.9852 12.0327 84.7106 11.3509C84.4407 10.669 84.043 10.1222 83.5174 9.71023C82.9918 9.2983 82.3503 9.09233 81.5927 9.09233C80.8398 9.09233 80.1983 9.2983 79.668 9.71023C79.1424 10.1222 78.7423 10.669 78.4677 11.3509C78.1978 12.0327 78.0629 12.7808 78.0629 13.5952C78.0629 14.4096 78.1978 15.1553 78.4677 15.8324C78.7423 16.5095 79.1424 17.0516 79.668 17.4588C80.1935 17.866 80.8351 18.0696 81.5927 18.0696ZM96.4986 10.4844L95.3409 10.8111C95.2273 10.4844 95.0663 10.1884 94.858 9.9233C94.6496 9.65814 94.3774 9.44744 94.0412 9.29119C93.7098 9.13494 93.2978 9.05682 92.8054 9.05682C92.0668 9.05682 91.4607 9.23201 90.9872 9.58239C90.5137 9.93277 90.277 10.3849 90.277 10.9389C90.277 11.4077 90.438 11.7888 90.7599 12.0824C91.0866 12.3712 91.5885 12.6009 92.2656 12.7713L93.9134 13.1761C94.8272 13.3987 95.5114 13.7514 95.9659 14.2344C96.4252 14.7173 96.6548 15.3234 96.6548 16.0526C96.6548 16.6681 96.4844 17.215 96.1435 17.6932C95.8026 18.1714 95.3267 18.5478 94.7159 18.8224C94.1098 19.0923 93.4067 19.2273 92.6065 19.2273C91.5412 19.2273 90.6629 18.9882 89.9716 18.5099C89.2803 18.027 88.8376 17.331 88.6435 16.4219L89.858 16.1236C90.0142 16.7723 90.3196 17.2623 90.7741 17.5938C91.2334 17.9252 91.8371 18.0909 92.5852 18.0909C93.4233 18.0909 94.0933 17.9039 94.5952 17.5298C95.0971 17.151 95.348 16.6776 95.348 16.1094C95.348 15.669 95.2012 15.2997 94.9077 15.0014C94.6141 14.6984 94.169 14.4759 93.5724 14.3338L91.7898 13.9077C90.8428 13.6804 90.142 13.3205 89.6875 12.8281C89.233 12.3357 89.0057 11.7249 89.0057 10.9957C89.0057 10.3944 89.169 9.86648 89.4957 9.41193C89.8224 8.95265 90.2723 8.5928 90.8452 8.33239C91.4181 8.07197 92.0715 7.94176 92.8054 7.94176C93.8045 7.94176 94.6023 8.16903 95.1989 8.62358C95.8002 9.07339 96.2334 9.69366 96.4986 10.4844ZM100.687 12.1818V19H99.4229V4.45455H100.687V9.80256H100.801C101.056 9.23911 101.452 8.7893 101.987 8.45312C102.527 8.11695 103.208 7.94886 104.032 7.94886C104.771 7.94886 105.42 8.10038 105.978 8.40341C106.537 8.70644 106.973 9.15388 107.285 9.74574C107.598 10.3376 107.754 11.0668 107.754 11.9332V19H106.483V12.0114C106.483 11.1117 106.232 10.4039 105.73 9.88778C105.233 9.36695 104.56 9.10653 103.713 9.10653C103.13 9.10653 102.612 9.22964 102.157 9.47585C101.703 9.72206 101.343 10.0772 101.078 10.5412C100.817 11.0005 100.687 11.5473 100.687 12.1818ZM111.097 19V8.09091H112.369V19H111.097ZM111.744 6.21591C111.483 6.21591 111.261 6.12831 111.076 5.95312C110.891 5.7732 110.799 5.55777 110.799 5.30682C110.799 5.05587 110.891 4.8428 111.076 4.66761C111.261 4.48769 111.483 4.39773 111.744 4.39773C112.004 4.39773 112.227 4.48769 112.411 4.66761C112.596 4.8428 112.688 5.05587 112.688 5.30682C112.688 5.55777 112.596 5.7732 112.411 5.95312C112.227 6.12831 112.004 6.21591 111.744 6.21591ZM116.976 12.1818V19H115.712V8.09091H116.941V9.80256H117.054C117.31 9.24384 117.708 8.7964 118.248 8.46023C118.792 8.11932 119.464 7.94886 120.265 7.94886C120.998 7.94886 121.642 8.10275 122.196 8.41051C122.755 8.71354 123.188 9.16098 123.496 9.75284C123.809 10.3447 123.965 11.0715 123.965 11.9332V19H122.701V12.0114C122.701 11.1165 122.45 10.4086 121.948 9.88778C121.451 9.36695 120.783 9.10653 119.945 9.10653C119.372 9.10653 118.863 9.22964 118.418 9.47585C117.973 9.72206 117.62 10.0772 117.36 10.5412C117.104 11.0005 116.976 11.5473 116.976 12.1818Z" fill="#343434"/>
</g>
<defs>
<clipPath id="clip0_55_2">
<rect width="126" height="24" fill="white"/>
</clipPath>
</defs>
</svg>
