<svg width="36" height="36" viewBox="0 0 36 36" fill="none" xmlns="http://www.w3.org/2000/svg">
<path d="M18 33C15.95 33 14.0125 32.606 12.1875 31.818C10.3625 31.031 8.769 29.956 7.407 28.593C6.044 27.231 4.969 25.6375 4.182 23.8125C3.394 21.9875 3 20.05 3 18C3 15.925 3.394 13.9815 4.182 12.1695C4.969 10.3565 6.044 8.769 7.407 7.407C8.769 6.044 10.3625 4.9685 12.1875 4.1805C14.0125 3.3935 15.95 3 18 3C20.075 3 22.0185 3.3935 23.8305 4.1805C25.6435 4.9685 27.231 6.044 28.593 7.407C29.956 8.769 31.031 10.3565 31.818 12.1695C32.606 13.9815 33 15.925 33 18V20.175C33 21.65 32.494 22.906 31.482 23.943C30.469 24.981 29.225 25.5 27.75 25.5C26.85 25.5 26.0125 25.3 25.2375 24.9C24.4625 24.5 23.825 23.975 23.325 23.325C22.65 24 21.8565 24.5315 20.9445 24.9195C20.0315 25.3065 19.05 25.5 18 25.5C15.925 25.5 14.1565 24.7685 12.6945 23.3055C11.2315 21.8435 10.5 20.075 10.5 18C10.5 15.925 11.2315 14.156 12.6945 12.693C14.1565 11.231 15.925 10.5 18 10.5C20.075 10.5 21.844 11.231 23.307 12.693C24.769 14.156 25.5 15.925 25.5 18V20.175C25.5 20.9 25.725 21.4685 26.175 21.8805C26.625 22.2935 27.15 22.5 27.75 22.5C28.35 22.5 28.875 22.2935 29.325 21.8805C29.775 21.4685 30 20.9 30 20.175V18C30 14.725 28.8185 11.906 26.4555 9.543C24.0935 7.181 21.275 6 18 6C14.725 6 11.906 7.181 9.543 9.543C7.181 11.906 6 14.725 6 18C6 21.275 7.181 24.0935 9.543 26.4555C11.906 28.8185 14.725 30 18 30H24C24.425 30 24.781 30.144 25.068 30.432C25.356 30.719 25.5 31.075 25.5 31.5C25.5 31.925 25.356 32.281 25.068 32.568C24.781 32.856 24.425 33 24 33H18ZM18 22.5C19.25 22.5 20.3125 22.0625 21.1875 21.1875C22.0625 20.3125 22.5 19.25 22.5 18C22.5 16.75 22.0625 15.6875 21.1875 14.8125C20.3125 13.9375 19.25 13.5 18 13.5C16.75 13.5 15.6875 13.9375 14.8125 14.8125C13.9375 15.6875 13.5 16.75 13.5 18C13.5 19.25 13.9375 20.3125 14.8125 21.1875C15.6875 22.0625 16.75 22.5 18 22.5Z" fill="#343434"/>
</svg>
