<svg width="36" height="36" viewBox="0 0 36 36" fill="none" xmlns="http://www.w3.org/2000/svg">
<path d="M10.7251 31.65C10.3501 31.275 10.1626 30.831 10.1626 30.318C10.1626 29.806 10.3501 29.3625 10.7251 28.9875L21.7126 18L10.6876 6.975C10.3376 6.625 10.1626 6.1875 10.1626 5.6625C10.1626 5.1375 10.3501 4.6875 10.7251 4.3125C11.1001 3.9375 11.5441 3.75 12.0571 3.75C12.5691 3.75 13.0126 3.9375 13.3876 4.3125L25.9876 16.95C26.1376 17.1 26.2441 17.2625 26.3071 17.4375C26.3691 17.6125 26.4001 17.8 26.4001 18C26.4001 18.2 26.3691 18.3875 26.3071 18.5625C26.2441 18.7375 26.1376 18.9 25.9876 19.05L13.3501 31.6875C13.0001 32.0375 12.5691 32.2125 12.0571 32.2125C11.5441 32.2125 11.1001 32.025 10.7251 31.65Z" fill="#6C6C6C"/>
</svg>
