<svg width="28" height="24" viewBox="0 0 28 24" fill="none" xmlns="http://www.w3.org/2000/svg">
<g clip-path="url(#clip0_86_2)">
<path d="M14.098 9.54688H10.9872C10.9304 9.14441 10.8144 8.78693 10.6392 8.47443C10.464 8.1572 10.2391 7.88731 9.96449 7.66477C9.68987 7.44223 9.37263 7.27178 9.01278 7.15341C8.65767 7.03504 8.27178 6.97585 7.85511 6.97585C7.10227 6.97585 6.4465 7.16288 5.88778 7.53693C5.32907 7.90625 4.89583 8.44602 4.58807 9.15625C4.2803 9.86174 4.12642 10.7187 4.12642 11.7273C4.12642 12.7642 4.2803 13.6354 4.58807 14.3409C4.90057 15.0464 5.33617 15.5791 5.89489 15.9389C6.4536 16.2988 7.09991 16.4787 7.83381 16.4787C8.24574 16.4787 8.62689 16.4242 8.97727 16.3153C9.33239 16.2064 9.64725 16.0478 9.92188 15.8395C10.1965 15.6264 10.4238 15.3684 10.6037 15.0653C10.7884 14.7623 10.9162 14.4167 10.9872 14.0284L14.098 14.0426C14.0175 14.7102 13.8163 15.3542 13.4943 15.9744C13.1771 16.59 12.7486 17.1416 12.2088 17.6293C11.6738 18.1122 11.0346 18.4957 10.2912 18.7798C9.55256 19.0592 8.71686 19.1989 7.78409 19.1989C6.48674 19.1989 5.3267 18.9053 4.30398 18.3182C3.28598 17.7311 2.48106 16.8812 1.8892 15.7685C1.30208 14.6558 1.00852 13.3087 1.00852 11.7273C1.00852 10.1411 1.30682 8.79167 1.90341 7.67898C2.5 6.56629 3.30966 5.71875 4.33239 5.13636C5.35511 4.54924 6.50568 4.25568 7.78409 4.25568C8.62689 4.25568 9.40814 4.37405 10.1278 4.6108C10.8523 4.84754 11.4938 5.19318 12.0526 5.64773C12.6113 6.09754 13.0658 6.64915 13.4162 7.30256C13.7713 7.95597 13.9986 8.70407 14.098 9.54688ZM16.9709 19V4.45455H21.6655C22.6977 4.45455 23.5594 4.64157 24.2507 5.01562C24.9467 5.38494 25.4699 5.89867 25.8203 6.55682C26.1754 7.21023 26.353 7.9607 26.353 8.80824C26.353 9.65578 26.1754 10.4039 25.8203 11.0526C25.4699 11.7012 24.9491 12.2079 24.2578 12.5724C23.5665 12.937 22.7095 13.1193 21.6868 13.1193H17.6882V11.9048H21.6513C22.4089 11.9048 23.0386 11.7794 23.5405 11.5284C24.0471 11.2775 24.4235 10.92 24.6697 10.456C24.9207 9.99195 25.0462 9.44271 25.0462 8.80824C25.0462 8.17377 24.9207 7.61979 24.6697 7.14631C24.4188 6.66809 24.04 6.29877 23.5334 6.03835C23.0315 5.77793 22.397 5.64773 21.63 5.64773H18.299V19H16.9709ZM23.3842 12.4375L26.9638 19H25.4297L21.8857 12.4375H23.3842Z" fill="white"/>
</g>
<defs>
<clipPath id="clip0_86_2">
<rect width="28" height="24" fill="white"/>
</clipPath>
</defs>
</svg>
